<?xml version="1.0" encoding="UTF-8"?>
<svg xmlns="http://www.w3.org/2000/svg" style="display: none;">
    <!-- Sunny -->
    <symbol id="sunny" viewBox="0 0 24 24">
        <circle cx="12" cy="12" r="5" fill="#FFD700"/>
        <g stroke="#FFD700" stroke-width="2">
            <line x1="12" y1="2" x2="12" y2="4"/>
            <line x1="12" y1="20" x2="12" y2="22"/>
            <line x1="2" y1="12" x2="4" y2="12"/>
            <line x1="20" y1="12" x2="22" y2="12"/>
            <line x1="4.93" y1="4.93" x2="6.34" y2="6.34"/>
            <line x1="17.66" y1="17.66" x2="19.07" y2="19.07"/>
            <line x1="4.93" y1="19.07" x2="6.34" y2="17.66"/>
            <line x1="17.66" y1="6.34" x2="19.07" y2="4.93"/>
        </g>
    </symbol>

    <!-- Partly Cloudy -->
    <symbol id="partly-cloudy" viewBox="0 0 24 24">
        <path d="M19.35 10.04C18.67 6.59 15.64 4 12 4 9.11 4 6.6 5.64 5.35 8.04 2.34 8.36 0 10.91 0 14c0 3.31 2.69 6 6 6h13c2.76 0 5-2.24 5-5 0-2.64-2.05-4.78-4.65-4.96z" fill="#B0C4DE"/>
        <circle cx="12" cy="8" r="3" fill="#FFD700"/>
    </symbol>

    <!-- Cloudy -->
    <symbol id="cloudy" viewBox="0 0 24 24">
        <path d="M19.35 10.04C18.67 6.59 15.64 4 12 4 9.11 4 6.6 5.64 5.35 8.04 2.34 8.36 0 10.91 0 14c0 3.31 2.69 6 6 6h13c2.76 0 5-2.24 5-5 0-2.64-2.05-4.78-4.65-4.96z" fill="#B0C4DE"/>
    </symbol>

    <!-- Rain -->
    <symbol id="rain" viewBox="0 0 24 24">
        <path d="M19.35 10.04C18.67 6.59 15.64 4 12 4 9.11 4 6.6 5.64 5.35 8.04 2.34 8.36 0 10.91 0 14c0 3.31 2.69 6 6 6h13c2.76 0 5-2.24 5-5 0-2.64-2.05-4.78-4.65-4.96z" fill="#B0C4DE"/>
        <path d="M7 18l-2 4M11 18l-2 4M15 18l-2 4" stroke="#4682B4" stroke-width="2" stroke-linecap="round"/>
    </symbol>

    <!-- Heavy Rain -->
    <symbol id="heavy-rain" viewBox="0 0 24 24">
        <path d="M19.35 10.04C18.67 6.59 15.64 4 12 4 9.11 4 6.6 5.64 5.35 8.04 2.34 8.36 0 10.91 0 14c0 3.31 2.69 6 6 6h13c2.76 0 5-2.24 5-5 0-2.64-2.05-4.78-4.65-4.96z" fill="#B0C4DE"/>
        <path d="M6 18l-2 4M8 18l-2 4M10 18l-2 4M12 18l-2 4M14 18l-2 4M16 18l-2 4" stroke="#4682B4" stroke-width="2" stroke-linecap="round"/>
    </symbol>

    <!-- Thunder -->
    <symbol id="thunder" viewBox="0 0 24 24">
        <path d="M19.35 10.04C18.67 6.59 15.64 4 12 4 9.11 4 6.6 5.64 5.35 8.04 2.34 8.36 0 10.91 0 14c0 3.31 2.69 6 6 6h13c2.76 0 5-2.24 5-5 0-2.64-2.05-4.78-4.65-4.96z" fill="#B0C4DE"/>
        <path d="M11 8l-4 6h3l-2 4" stroke="#FFD700" stroke-width="2" fill="none" stroke-linecap="round" stroke-linejoin="round"/>
    </symbol>

    <!-- Snow -->
    <symbol id="snow" viewBox="0 0 24 24">
        <path d="M19.35 10.04C18.67 6.59 15.64 4 12 4 9.11 4 6.6 5.64 5.35 8.04 2.34 8.36 0 10.91 0 14c0 3.31 2.69 6 6 6h13c2.76 0 5-2.24 5-5 0-2.64-2.05-4.78-4.65-4.96z" fill="#B0C4DE"/>
        <circle cx="8" cy="18" r="1" fill="#87CEEB"/>
        <circle cx="12" cy="18" r="1" fill="#87CEEB"/>
        <circle cx="16" cy="18" r="1" fill="#87CEEB"/>
    </symbol>

    <!-- Fog -->
    <symbol id="fog" viewBox="0 0 24 24">
        <path d="M19.35 10.04C18.67 6.59 15.64 4 12 4 9.11 4 6.6 5.64 5.35 8.04 2.34 8.36 0 10.91 0 14c0 3.31 2.69 6 6 6h13c2.76 0 5-2.24 5-5 0-2.64-2.05-4.78-4.65-4.96z" fill="#B0C4DE"/>
        <line x1="4" y1="18" x2="20" y2="18" stroke="#E0E0E0" stroke-width="2"/>
        <line x1="6" y1="20" x2="18" y2="20" stroke="#E0E0E0" stroke-width="2"/>
    </symbol>
</svg> 